<svg width="202" height="122" viewBox="0 0 202 122" fill="none" xmlns="http://www.w3.org/2000/svg">
<g clip-path="url(#clip0_8858_4191)">
<path d="M23.5451 67.3278H10.1411L8.69238 75.0577H23.7148L22.5271 81.3856H0L6.33004 47.7544H28.0871L26.8602 54.0824H12.6079L11.3027 61.013H24.7459L23.519 67.341L23.5451 67.3278Z" fill="black"/>
<path d="M42.9268 65.8999L41.9349 71.0749H28.048L29.0399 65.8999H42.9268Z" fill="black"/>
<path d="M51.2537 48.2784C54.5297 47.715 57.9492 47.5054 61.4601 47.5054C67.0984 47.5054 71.7578 48.6059 75.0077 51.2C78.0096 53.4141 80.0717 56.8204 80.0848 62.2968C80.0848 68.14 77.7224 73.2234 73.3371 76.7083C69.03 80.1016 63.4961 81.6345 55.2867 81.6345C50.5881 81.6345 46.764 81.2676 45.0542 80.9925L51.2798 48.2784H51.2537ZM53.7205 75.4375C54.6993 75.5816 55.887 75.6209 57.3488 75.6209C61.8386 75.6209 65.6497 74.3501 68.0903 71.9656C70.5962 69.5681 71.8361 66.3058 71.8361 62.6113C71.8361 56.5846 68.26 53.5058 61.4209 53.5058C59.9722 53.5058 58.7193 53.6106 57.8317 53.7678L53.7205 75.4506V75.4375Z" fill="black"/>
<path d="M82.0686 81.3858L86.6758 56.9648H94.1544L89.5472 81.3858H82.0686Z" fill="black"/>
<path d="M97.7567 84.5298C99.2576 85.4076 102.625 85.9578 104.961 85.9578C108.511 85.9578 111.513 84.6215 112.622 79.2761L113.001 77.5074H112.897C110.939 79.9181 108.629 81.1496 105.457 81.1496C100.119 81.1496 96.7517 76.9703 96.7517 71.8738C96.7517 63.7117 102.873 56.3618 114.006 56.3618C117.686 56.3618 120.897 57.0038 123.716 58.1436L120.127 78.0446C119.279 82.5908 117.869 86.8225 114.698 89.2725C111.852 91.4342 108.08 91.9845 104.883 91.9845C101.189 91.9845 97.9655 91.3425 96.073 90.2682L97.7567 84.556V84.5298ZM115.611 62.585C115.011 62.3229 113.771 62.0871 112.622 62.0871C108.054 62.0871 104.752 66.214 104.752 70.996C104.752 73.6687 106.136 75.4112 108.511 75.4112C110.887 75.4112 113.654 73.0137 114.541 68.1924L115.611 62.5719V62.585Z" fill="black"/>
<path d="M125.831 81.3856L130.438 56.9646H137.917L133.309 81.3856H125.831ZM131.43 50.3353C131.43 47.702 133.544 46.1953 135.75 46.1953C137.956 46.1953 139.548 47.5317 139.561 49.8244C139.561 52.4054 137.538 53.9251 135.111 53.9251C133.088 53.9251 131.43 52.5626 131.43 50.3353Z" fill="black"/>
<path d="M153.957 50.0341L152.691 56.9516H158.081L156.933 62.7817H151.543L150.081 70.053C149.859 71.0618 149.611 72.4899 149.611 73.4987C149.611 74.5861 150.042 75.5425 151.751 75.5425C152.443 75.5425 153.187 75.5163 153.813 75.4377L152.965 81.3726C152.091 81.7394 150.224 81.9622 148.58 81.9622C144.077 81.9622 141.989 79.7218 141.989 76.7347C141.989 75.3197 142.119 73.9965 142.537 71.9265L144.325 62.7686H141.114L142.224 56.9385H145.434L146.4 51.7635L153.983 50.021L153.957 50.0341Z" fill="black"/>
<path d="M175.205 81.3854C175.257 79.9312 175.414 78.1363 175.558 76.3021H175.453C173.117 80.6256 169.737 81.975 166.604 81.975C161.984 81.975 158.551 78.4507 158.551 73.0792C158.551 64.5764 164.594 56.3618 177.072 56.3618C180.126 56.3618 183.454 56.9776 185.659 57.6588L183.154 70.1445C182.553 73.3936 182.083 78.2149 182.188 81.3854H175.205ZM177.228 62.3098C176.654 62.1788 175.897 62.0871 175.049 62.0871C170.232 62.0871 166.487 66.9477 166.487 71.8083C166.487 74.2976 167.674 75.9877 169.789 75.9877C172.086 75.9877 175.075 73.6425 176.262 67.1573L177.228 62.3229V62.3098Z" fill="black"/>
<path d="M187.708 81.3857L194.521 45.6582H202L195.187 81.3857H187.708Z" fill="black"/>
<path d="M125.635 96.2162C127.319 95.7576 130.072 95.4956 132.866 95.4956C135.385 95.4956 138.06 95.8755 140.018 97.0809C141.976 98.26 143.215 100.068 143.215 102.937C143.215 106.068 141.806 108.453 139.678 110.038C137.46 111.715 134.314 112.488 130.856 112.488C129.785 112.488 128.885 112.357 128.258 112.292L126.496 121.554H120.871L125.648 96.2293L125.635 96.2162ZM129.107 107.588C129.798 107.732 130.503 107.837 131.652 107.837C134.902 107.837 137.447 106.147 137.447 103.448C137.447 100.749 135.319 100.042 133.114 100.042C131.887 100.042 131.025 100.133 130.516 100.238L129.107 107.575V107.588Z" fill="#87888A"/>
<path d="M171.825 106.868C171.825 111.296 170.232 115.122 167.413 117.873C164.751 120.454 161.044 122 156.633 122C149.598 122 144.821 117.519 144.821 110.445C144.821 105.977 146.531 102.073 149.376 99.3345C152.064 96.7667 155.849 95.2207 160.026 95.2207C167.23 95.2207 171.812 99.6359 171.812 106.868H171.825ZM154.048 102.282C152.117 104.221 150.994 107.143 150.994 110.038C150.994 114.401 153.122 117.257 157.468 117.257C159.439 117.257 161.266 116.406 162.675 114.991C164.529 113.13 165.651 110.261 165.651 107.208C165.651 103.448 164.176 99.9634 159.373 99.9634C157.285 99.9634 155.458 100.854 154.048 102.282Z" fill="#87888A"/>
<path d="M174.696 115.2C176.432 116.248 178.899 117.074 181.626 117.074C183.741 117.074 185.829 116.17 185.829 114.178C185.829 112.777 184.641 111.873 182.044 110.72C179.068 109.409 175.949 107.392 175.949 103.684C175.949 98.3126 180.883 95.2207 186.664 95.2207C190.188 95.2207 192.224 95.9806 193.517 96.6487L191.624 101.418C190.763 100.946 188.596 100.081 186.155 100.147C183.402 100.147 182.07 101.418 182.07 102.636C182.07 104.234 184.015 105.152 186.234 106.187C189.705 107.746 192.003 109.789 192.003 113.222C192.003 119.105 186.86 122 180.843 122C176.928 122 174.043 120.913 172.621 119.851L174.683 115.2H174.696Z" fill="#87888A"/>
<path d="M40.473 40.7847C40.3034 41.0205 40.1598 41.2432 40.0162 41.479L42.7962 45.0426C42.9659 44.833 43.1225 44.6103 43.2922 44.4006L40.46 40.7847H40.473Z" fill="#283B8F"/>
<path d="M41.3083 39.6714C41.1256 39.9072 40.9559 40.1168 40.7863 40.3527L43.6315 43.9948C43.8012 43.7852 43.997 43.5756 44.1797 43.366L41.2953 39.6714H41.3083Z" fill="#283B8F"/>
<path d="M42.1828 38.623C41.987 38.8589 41.7912 39.0816 41.5955 39.3174L44.506 43.0251C44.7017 42.8155 44.9106 42.6059 45.1194 42.3831L42.1828 38.623Z" fill="#283B8F"/>
<path d="M39.7291 41.9507C39.5986 42.1865 39.455 42.4223 39.3375 42.6582L42.0653 46.1562C42.1958 45.9335 42.3394 45.7108 42.496 45.5012L39.7291 41.9638V41.9507Z" fill="#283B8F"/>
<path d="M43.0964 37.6274C42.8746 37.8633 42.6527 38.086 42.4569 38.3218L45.4196 42.1081C45.6415 41.8985 45.8764 41.6758 46.1114 41.4661L43.1095 37.6274H43.0964Z" fill="#283B8F"/>
<path d="M40.5906 51.7244L38.0063 48.4229C38.0455 48.8028 38.1238 49.1958 38.2413 49.5627L41.0082 53.1131C40.9169 52.9035 40.8385 52.6939 40.7733 52.4712C40.695 52.2223 40.6428 51.9864 40.6036 51.7244" fill="#283B8F"/>
<path d="M38.45 44.6758C38.3587 44.9378 38.2934 45.1867 38.2281 45.4357L40.8254 48.7634C40.9037 48.5276 40.982 48.2918 41.0734 48.0428L38.437 44.6758H38.45Z" fill="#283B8F"/>
<path d="M39.0374 43.2349C38.9199 43.4707 38.8285 43.7065 38.7241 43.9554L41.3867 47.3618C41.4911 47.1391 41.6085 46.9163 41.726 46.6936L39.0243 43.2349H39.0374Z" fill="#283B8F"/>
<path d="M38.0585 46.353C38.0194 46.6282 37.9933 46.8902 37.9672 47.1522L40.5253 50.4276C40.5383 50.1655 40.5775 49.9166 40.6166 49.6546L38.0455 46.353H38.0585Z" fill="#283B8F"/>
<path d="M46.02 34.8892C45.7459 35.125 45.4718 35.3608 45.1978 35.5966L48.3171 39.5795C48.5912 39.3567 48.8783 39.134 49.1654 38.9244L46.02 34.8892Z" fill="#283B8F"/>
<path d="M50.2618 31.6792C49.9225 31.915 49.5701 32.1508 49.2438 32.3998L52.5328 36.6184C52.8721 36.3957 53.2245 36.173 53.59 35.9633L50.2618 31.6923V31.6792Z" fill="#283B8F"/>
<path d="M49.1654 32.4521C48.8391 32.688 48.4998 32.9238 48.1996 33.1596L51.4364 37.3259C51.7627 37.1031 52.102 36.8804 52.4544 36.6577C51.3581 35.2558 50.2617 33.854 49.1654 32.4521Z" fill="#283B8F"/>
<path d="M51.3581 30.9458C51.0057 31.1816 50.6402 31.4174 50.3009 31.6533L53.6421 35.9243C54.0076 35.7016 54.373 35.492 54.7385 35.2693L51.3711 30.9458H51.3581Z" fill="#283B8F"/>
<path d="M44.0493 36.6709C43.8013 36.9067 43.5794 37.1294 43.3445 37.3653L46.3594 41.2171C46.6074 41.0075 46.8423 40.7847 47.1034 40.5751L44.0493 36.6709Z" fill="#283B8F"/>
<path d="M75.0469 20.1632C65.8324 22.9931 57.6752 26.7925 51.3712 30.9325L54.7516 35.256C60.2202 32.0724 66.9679 29.1245 74.4726 26.8187C95.4466 20.3728 114.371 21.434 116.721 29.1638C118.261 34.2341 112.309 40.9158 102.129 46.7328C115.781 39.6712 124.056 30.7753 122.007 24.0281C119.187 14.8047 98.1743 13.0885 75.0469 20.1763" fill="#283B8F"/>
<path d="M45.0151 35.767C44.754 36.0028 44.506 36.2387 44.2581 36.4614L47.3121 40.3787C47.5732 40.156 47.8342 39.9463 48.1083 39.7367L45.002 35.7539L45.0151 35.767Z" fill="#283B8F"/>
<path d="M48.1083 33.2251C47.7951 33.4609 47.4818 33.6967 47.1816 33.9457L50.3793 38.0464C50.7056 37.8237 51.0188 37.601 51.3451 37.3782L48.0953 33.2251H48.1083Z" fill="#283B8F"/>
<path d="M47.0381 34.0508C46.7509 34.2866 46.4638 34.5093 46.1897 34.7452L49.3482 38.7935C49.6353 38.5708 49.9355 38.3611 50.2357 38.1515L47.0381 34.0508Z" fill="#283B8F"/>
<path d="M37.1319 23.5039C36.8839 23.779 36.649 24.0542 36.4141 24.3293L39.0244 27.6832C39.2724 27.4212 39.5203 27.1592 39.7814 26.8972L37.1319 23.5039Z" fill="#EE4036"/>
<path d="M31.2586 33.2773C31.1803 33.5656 31.102 33.8407 31.0498 34.1158L33.2816 36.9719C33.3599 36.7099 33.4383 36.4348 33.5296 36.1727L31.2586 33.2773Z" fill="#EE4036"/>
<path d="M30.8932 34.9805C30.841 35.2818 30.8149 35.5831 30.7888 35.8976L32.9554 38.6751C32.9815 38.3868 33.0337 38.0986 33.0859 37.8104L30.8802 34.9936L30.8932 34.9805Z" fill="#EE4036"/>
<path d="M33.7776 27.8667C33.6079 28.1418 33.4382 28.4039 33.2816 28.6659L35.7223 31.7971C35.8919 31.5482 36.0616 31.2862 36.2443 31.0372L33.7645 27.8667H33.7776Z" fill="#EE4036"/>
<path d="M31.7677 31.7578C31.6633 32.0329 31.5589 32.3081 31.4675 32.5832L33.7646 35.5179C33.869 35.2559 33.9734 34.9939 34.0909 34.7318L31.7677 31.7578Z" fill="#EE4036"/>
<path d="M33.0336 29.0981C32.8901 29.3601 32.7465 29.6221 32.616 29.8841L35.0175 32.9499C35.161 32.7009 35.3177 32.4389 35.4743 32.19L33.0467 29.085L33.0336 29.0981Z" fill="#EE4036"/>
<path d="M32.368 30.3818C32.2375 30.657 32.12 30.919 32.0026 31.1941L34.3388 34.1943C34.4693 33.9323 34.5998 33.6834 34.7434 33.4214L32.368 30.3818Z" fill="#EE4036"/>
<path d="M30.7627 37.0243C30.7627 37.3519 30.7888 37.6794 30.828 38.0069L32.9293 40.6927C32.9032 40.3783 32.8901 40.0639 32.8901 39.7363L30.7627 37.0112V37.0243Z" fill="#EE4036"/>
<path d="M33.2294 42.3042L31.1672 39.6577C31.1672 39.6577 31.1933 39.7494 31.2064 39.8018C31.363 40.3521 31.5849 40.863 31.8329 41.374L33.9342 44.0729C33.6731 43.5619 33.4513 43.0379 33.2816 42.4876C33.2555 42.4352 33.2555 42.3697 33.2294 42.3173" fill="#EE4036"/>
<path d="M38.9983 21.5518C38.7242 21.8269 38.4501 22.1151 38.176 22.4033L40.8647 25.849C41.1518 25.587 41.4389 25.325 41.7391 25.0629L38.9983 21.5649V21.5518Z" fill="#EE4036"/>
<path d="M38.0454 22.5342C37.7844 22.8093 37.5234 23.0713 37.2885 23.3465L39.951 26.7528C40.212 26.4908 40.473 26.2419 40.7471 25.9798L38.0585 22.5342H38.0454Z" fill="#EE4036"/>
<path d="M40.93 19.7309C40.6167 20.006 40.3165 20.2942 40.0164 20.5694L42.7964 24.1198C43.1096 23.8578 43.4228 23.5827 43.7491 23.3207L40.93 19.7178V19.7309Z" fill="#EE4036"/>
<path d="M39.9379 20.6479C39.6377 20.923 39.3506 21.2112 39.0635 21.4864L41.8043 24.9844C42.1045 24.7224 42.4047 24.4473 42.7179 24.1852C41.7913 23.0061 40.8646 21.8139 39.9379 20.6348" fill="#EE4036"/>
<path d="M34.5607 26.7006C34.365 26.9757 34.1822 27.2378 34.0126 27.5129L36.5054 30.6965C36.6882 30.4345 36.8839 30.1856 37.0928 29.9235L34.5607 26.6875V26.7006Z" fill="#EE4036"/>
<path d="M75.7256 0.13098C61.1469 5.51565 48.9698 12.5249 40.9822 19.7044L43.8013 23.3073C51.802 16.7959 63.6529 10.5728 77.5659 6.11831C79.2104 5.60735 80.1371 3.86487 79.628 2.2141C79.1321 0.563325 77.3832 -0.366873 75.7387 0.144081" fill="#EE4036"/>
<path d="M35.396 25.5868C35.1872 25.862 34.9914 26.124 34.7826 26.3991L37.3146 29.6352C37.5234 29.3731 37.7323 29.1242 37.9541 28.8622L35.383 25.5737L35.396 25.5868Z" fill="#EE4036"/>
<path d="M36.2444 24.5259C36.0225 24.801 35.8006 25.063 35.5787 25.3382L38.1499 28.6397C38.3718 28.3908 38.6067 28.1288 38.8416 27.8667L36.2313 24.5259H36.2444Z" fill="#EE4036"/>
<path d="M35.0697 38.1509C34.9653 38.4129 34.887 38.6618 34.8087 38.9239L37.2755 42.0813C37.3668 41.8324 37.4712 41.5965 37.5757 41.3476L35.0828 38.1509H35.0697Z" fill="#EE4036"/>
<path d="M37.915 33.1592C37.7323 33.4081 37.5496 33.657 37.3799 33.906L40.0816 37.3647C40.2643 37.1289 40.4601 36.9062 40.6558 36.6703L37.915 33.1592Z" fill="#EE4036"/>
<path d="M36.3488 35.4912C36.1922 35.7401 36.0617 35.9891 35.9312 36.238L38.5154 39.5526C38.6589 39.3168 38.8156 39.0941 38.9722 38.8583L36.3488 35.5043V35.4912Z" fill="#EE4036"/>
<path d="M37.1057 34.2992C36.9361 34.5351 36.7794 34.784 36.6359 35.0329L39.2853 38.4262C39.442 38.1903 39.6116 37.9676 39.7944 37.7318L37.1057 34.2861V34.2992Z" fill="#EE4036"/>
<path d="M34.5737 39.71C34.5085 39.9851 34.4563 40.2602 34.4041 40.5353L36.8056 43.6011C36.8578 43.339 36.923 43.077 37.0013 42.815L34.5737 39.71Z" fill="#EE4036"/>
<path d="M34.2866 41.5444C34.2605 41.8327 34.2605 42.134 34.2605 42.4222L36.5967 45.4093C36.5967 45.1342 36.6098 44.8591 36.6359 44.5709L34.2735 41.5575L34.2866 41.5444Z" fill="#EE4036"/>
<path d="M35.67 36.7489C35.5526 36.9979 35.422 37.2599 35.3176 37.5088L37.8496 40.7449C37.9671 40.509 38.0976 40.2732 38.2281 40.0243L35.67 36.7358V36.7489Z" fill="#EE4036"/>
<path d="M36.7272 46.7846L34.4041 43.8237C34.4563 44.1513 34.5346 44.4657 34.639 44.7801C34.6781 44.898 34.7173 45.0029 34.7434 45.1077L37.1318 48.1603C37.0535 47.9638 36.9752 47.7672 36.91 47.5576C36.8317 47.3087 36.7664 47.0467 36.7272 46.7846Z" fill="#EE4036"/>
<path d="M67.751 16.8874C67.255 15.2367 65.5061 14.3065 63.8747 14.8174C63.7833 14.8436 63.6919 14.8829 63.6006 14.9222C56.5136 18.1452 50.3793 21.8136 45.5763 25.5999L48.7348 29.6613C53.4464 26.4121 59.3066 23.3202 65.9499 20.7261C67.4378 20.1104 68.247 18.4596 67.7641 16.8874" fill="#EE4036"/>
<path d="M38.7633 32.0849C38.5545 32.3338 38.3587 32.5827 38.163 32.8317L40.9299 36.369C41.1257 36.1332 41.3476 35.8974 41.5694 35.6616L38.7764 32.0718L38.7633 32.0849Z" fill="#EE4036"/>
<path d="M42.483 28.207C42.2089 28.456 41.9349 28.718 41.6738 28.9669L44.6365 32.7663C44.9106 32.5305 45.1978 32.3078 45.4849 32.0719L42.47 28.2201L42.483 28.207Z" fill="#EE4036"/>
<path d="M44.4799 26.4644C44.1667 26.7264 43.8665 26.9884 43.5663 27.2504L46.6334 31.1808C46.9467 30.945 47.2729 30.6961 47.6123 30.4603C46.5682 29.137 45.524 27.8007 44.4929 26.4775" fill="#EE4036"/>
<path d="M45.524 25.6127C45.1978 25.8747 44.8845 26.1368 44.5582 26.3857L47.6776 30.3816C48.0039 30.1458 48.3432 29.8969 48.6956 29.661L45.524 25.5996V25.6127Z" fill="#EE4036"/>
<path d="M43.488 27.3031C43.1878 27.5652 42.9007 27.8272 42.6135 28.0761L45.6284 31.941C45.9286 31.6921 46.2419 31.4563 46.5551 31.2205L43.488 27.29V27.3031Z" fill="#EE4036"/>
<path d="M39.6509 31.0498C39.429 31.2987 39.2071 31.5477 38.9983 31.7966L41.8174 35.3995C42.0393 35.1636 42.2742 34.9278 42.5092 34.7051L39.6509 31.0498Z" fill="#EE4036"/>
<path d="M40.5775 30.0673C40.3295 30.3162 40.0946 30.5652 39.8727 30.8141L42.731 34.4825C42.979 34.2466 43.2269 34.0108 43.488 33.775L40.5775 30.0542V30.0673Z" fill="#EE4036"/>
<path d="M41.5172 29.1108C41.2562 29.3729 40.9952 29.6218 40.7472 29.8707L43.6577 33.6046C43.9187 33.3688 44.1928 33.133 44.4669 32.8971L41.5042 29.1108H41.5172Z" fill="#EE4036"/>
<path d="M94.9767 49.117C94.9767 51.3704 93.1626 53.2046 90.9177 53.2046C88.6728 53.2046 86.8586 51.3704 86.8586 49.117C86.8586 46.8636 88.6728 45.0425 90.9177 45.0425C93.1626 45.0425 94.9767 46.8636 94.9767 49.117Z" fill="#EE3E36"/>
</g>
<defs>
<clipPath id="clip0_8858_4191">
<rect width="202" height="122" fill="white"/>
</clipPath>
</defs>
</svg>
